<svg width="62" height="47" viewBox="0 0 62 47" fill="none" xmlns="http://www.w3.org/2000/svg">
<rect x="0.5" y="0.5" width="61" height="46" rx="23" fill="#00AB78"/>
<rect x="0.5" y="0.5" width="61" height="46" rx="23" stroke="#00AB78"/>
<path d="M43 23.5C43 23.7652 42.8946 24.0196 42.7071 24.2071C42.5196 24.3946 42.2652 24.5 42 24.5H20C19.7348 24.5 19.4804 24.3946 19.2929 24.2071C19.1054 24.0196 19 23.7652 19 23.5C19 23.2348 19.1054 22.9804 19.2929 22.7929C19.4804 22.6054 19.7348 22.5 20 22.5H42C42.2652 22.5 42.5196 22.6054 42.7071 22.7929C42.8946 22.9804 43 23.2348 43 23.5ZM20 16.5H42C42.2652 16.5 42.5196 16.3946 42.7071 16.2071C42.8946 16.0196 43 15.7652 43 15.5C43 15.2348 42.8946 14.9804 42.7071 14.7929C42.5196 14.6054 42.2652 14.5 42 14.5H20C19.7348 14.5 19.4804 14.6054 19.2929 14.7929C19.1054 14.9804 19 15.2348 19 15.5C19 15.7652 19.1054 16.0196 19.2929 16.2071C19.4804 16.3946 19.7348 16.5 20 16.5ZM42 30.5H20C19.7348 30.5 19.4804 30.6054 19.2929 30.7929C19.1054 30.9804 19 31.2348 19 31.5C19 31.7652 19.1054 32.0196 19.2929 32.2071C19.4804 32.3946 19.7348 32.5 20 32.5H42C42.2652 32.5 42.5196 32.3946 42.7071 32.2071C42.8946 32.0196 43 31.7652 43 31.5C43 31.2348 42.8946 30.9804 42.7071 30.7929C42.5196 30.6054 42.2652 30.5 42 30.5Z" fill="white"/>
</svg>
